<?xml version="1.0" encoding="utf-8"?>
<!-- Generator: Adobe Illustrator 27.6.1, SVG Export Plug-In . SVG Version: 6.00 Build 0)  -->
<svg version="1.1" id="Layer_1" xmlns="http://www.w3.org/2000/svg" xmlns:xlink="http://www.w3.org/1999/xlink" x="0px" y="0px"
	 viewBox="0 0 500 500" style="enable-background:new 0 0 500 500;" xml:space="preserve">
<style type="text/css">
	.st0{fill:#E6E6E6;}
	.st1{fill:#FFFFFF;}
	.st2{fill:#6C63FF;}
	.st3{fill:#FFB6B6;}
	.st4{fill:#2F2E41;}
	.st5{fill:#FFB8B8;}
	.st6{fill:#F0F0F0;}
	.st7{fill:#CACACA;}
</style>
<path class="st0" d="M595.5,342.1H134c-8.6,0-15.5-6.9-15.5-15.5V-49.2c0-8.6,6.9-15.5,15.5-15.5h461.5c8.6,0,15.5,6.9,15.5,15.5
	v375.8C611,335.1,604,342.1,595.5,342.1z"/>
<path class="st1" d="M550.6,331.6H144.5c-8.6,0-15.5-6.9-15.5-15.5V-38.7c0-8.6,6.9-15.5,15.5-15.5H585c8.6,0,15.5,6.9,15.5,15.5
	v320.5C600.5,309.3,578.2,331.6,550.6,331.6L550.6,331.6z"/>
<path class="st2" d="M439,26H253.5c-2.2,0-4-1.8-4-4s1.8-4,4-4H439c2.2,0,4,1.8,4,4S441.2,26,439,26L439,26z"/>
<path class="st0" d="M532.9,68.7H253.5c-2.2,0-4-1.8-4-4s1.8-4,4-4h279.4c2.2,0,4,1.8,4,4C536.9,66.9,535.1,68.7,532.9,68.7
	L532.9,68.7z"/>
<path class="st0" d="M532.9,111.4H253.5c-2.2,0-4-1.8-4-4c0-2.2,1.8-4,4-4h279.4c2.2,0,4,1.8,4,4
	C536.9,109.6,535.1,111.4,532.9,111.4L532.9,111.4z"/>
<path class="st0" d="M532.9,154H253.5c-2.2,0-4-1.8-4-4s1.8-4,4-4h279.4c2.2,0,4,1.8,4,4C536.9,152.2,535.1,154,532.9,154L532.9,154
	z"/>
<path class="st0" d="M532.9,196.7H253.5c-2.2,0-4-1.8-4-4c0-2.2,1.8-4,4-4h279.4c2.2,0,4,1.8,4,4S535.1,196.7,532.9,196.7
	L532.9,196.7z"/>
<path class="st2" d="M520.4,264.7c-11.2,0-20.3-9.1-20.3-20.3s9.1-20.3,20.3-20.3c11.2,0,20.3,9.1,20.3,20.3l0,0
	C540.6,255.6,531.5,264.7,520.4,264.7z"/>
<path class="st1" d="M531.7,243.5l-5.7-8.4c-0.5-0.8-1.6-1-2.4-0.4c-0.8,0.5-1,1.6-0.4,2.4l0,0l3.7,5.4h-14.5c-1.1,0-2,0.9-2,2
	s0.9,2,2,2h14.7l-3.9,5.7c-0.5,0.8-0.3,1.8,0.5,2.4c0.8,0.5,1.8,0.3,2.4-0.4l5.7-8.4C532.1,245,532.1,244.2,531.7,243.5z"/>
<path class="st3" d="M166,285.8c3.1-2.6,3.5-7.1,0.9-10.2c-0.3-0.3-0.6-0.6-0.9-0.9l-4.4-37.9l-13.9,3.2l7.7,36
	c-2.4,3.2-1.7,7.8,1.6,10.2C159.7,288.1,163.4,287.9,166,285.8L166,285.8z"/>
<path class="st2" d="M164.5,242.9L148.4,253c0,0-1,5.9-2.1-8.9c-0.1-1.5,1-4.2,0.8-5.8c-0.1-1.8-5.3-2.6-5.4-4.4
	c-0.1-1.3,1.4-2.4,1.3-3.7c-0.1-2-0.3-3.9-0.4-5.8c-0.1-1.6-1.9-2.6-2-4.1c-0.1-1.6,1.4-3.6,1.3-5.1c-0.8-11,2-38.8,2-39.4
	c-0.2-1.4-0.8-2.8-1.7-3.9l0.9-2.6l-0.6-4.8c-0.7-6.4,0.6-12.8,3.8-18.3l0,0l4.1-2.7l18.9,31.8C161.3,202.7,156.1,213.5,164.5,242.9
	z"/>
<polygon class="st3" points="151.9,480.1 161.7,480.1 166.3,442.5 151.9,442.5 "/>
<path class="st4" d="M148.7,473.4l15.6-0.9v6.7l14.8,10.2c1.9,1.3,2.4,3.9,1.1,5.8c-0.8,1.1-2.1,1.8-3.4,1.8h-18.6l-3.2-6.6
	l-1.2,6.6h-7L148.7,473.4z"/>
<polygon class="st3" points="206.8,480.1 216.5,480.1 221.2,442.5 206.8,442.5 "/>
<path class="st4" d="M203.6,473.4l15.6-0.9v6.7l14.8,10.2c1.9,1.3,2.4,3.9,1.1,5.8c-0.8,1.1-2.1,1.8-3.4,1.8h-18.6l-3.2-6.6
	l-1.2,6.6h-7L203.6,473.4z"/>
<path class="st4" d="M147.8,447.7L147.8,447.7l1.9-89.7c-2.5-4.8-2.4-10.4,0.2-15.1l0.3-0.5l-0.7-3.2c-0.9-4.2-0.5-8.5,1.2-12.4
	l1.8-57.1c-6.3-40.6,23.6-67,23.6-67h44.7l9.6,33c6.3,61.8,5.2,150.5-4.9,208.8l0.3,0.1c1.1,0.6,1.5,1.9,0.9,3.1
	c-0.5,1.3-1.6,2.2-2.6,1.8l-23.6-0.8c-1.1-0.6-1.5-1.9-0.9-3.1c0.5-1.3,1.6-2.2,2.6-1.8l1.6,0.8l-1.7-3.4c-2-4.1-1.6-9,1-12.8l0,0
	l-0.3-7.4l0,0c-2.5-2.9-3.3-7-2.2-10.6l1.6-5.2l-1.9-48.1l0.4-10.8l-0.8-12.2l-3.6-55.1l-13.7,67.7l-14,101.8c0.7,0.6,1,1.6,0.8,2.5
	c-0.3,1.2-1.4,2-2.6,2h-19c-1.4,0-2.6-1.2-2.6-2.6c0-0.2,0-0.5,0.1-0.7C145.5,448.4,146.6,447.6,147.8,447.7z"/>
<path class="st3" d="M256.4,271c2.5-3.1,2.1-7.7-1-10.2c-0.3-0.3-0.7-0.5-1.1-0.7l-11.5-36.4l-13.1,5.8l14.4,33.8
	c-1.7,3.6-0.2,8,3.5,9.7C250.6,274.5,254.3,273.6,256.4,271L256.4,271z"/>
<path class="st2" d="M209,155.2c0,0,13.1,46.5,12.5,51.2c-1.2,9.7-61.6,39.5-66.1,26.2l0.6-4.4c-2.3-4.5,11.6-22.5,12.2-24.9
	c0.9-3-3-12.9-3-12.9s2.7-9,2.2-14.6c-0.4-5.6-1.7-4.7-6.5-8.2c-4.7-3.4-12.5-19.3-12.5-19.3s3.4-15.5,3.4-18.5
	c0-3,14.1-8.1,15.8-9.9c0.7-1,1.4-2.1,1.9-3.2c0.3-0.7,0.1-2.3,0.5-3.1c0.2-0.5,1.1-0.2,1.3-0.7c0.2-0.5,0-1.1,0.3-1.6
	c0.3-0.7,1.1-1.3,1.3-1.9c1.3-2.9,2.5-5.3,2.8-5.3c0.9,0,28.4,3.9,28.4,3.9c1.5,2.3,3.2,4.5,5.2,6.5c3,3,17.1,10.3,17.1,10.3
	L209,155.2z"/>
<path class="st2" d="M246.1,233.5c-2.2,2.2-12.8,12-13.2,9.4c-0.4-2.6-0.7-2.9-2.4-3.7c-1.7-0.9-1.7-1.3-2.2-4.3
	c-0.4-3-4.3-6-3.9-7.3c0.4-1.3,0,0.4,0-0.9c0-1.3-1.3-6-3-6.9c-1.7-0.9-4.3-1.7-3-3.9c1.3-2.2-12.1-66.7-12.1-66.7l12-23.6l8.2-0.9
	c0,0,2.5,1.4,3.3,14.2c0,0.6,0.7,1.8,0.8,2.5c0,0.6-0.6,0.7-0.6,1.3c0,0.1,0,0.3,0,0.4c0,0.6,1.7,1.1,1.7,1.7c0,1.1,0.7,8,0.8,9
	c0.1,1.1,0.2,2.2,0.3,3.3c1.2,11.5,1.6,12.5,2.3,16.2c1.1,5.7,5.9,39,5.9,39s3.4,0.9,3.4,3.9s3.8,9.1,2.1,12.5
	C244.8,232.2,248.3,231.3,246.1,233.5z"/>
<circle class="st5" cx="187.6" cy="82.8" r="20.4"/>
<path class="st4" d="M143.7,125.7c-4.3-1.5-8.6-3.1-12.9-4.6c0.7-1.2,1.7-2.4,2.8-3.3c4.1-3.4,9.8-4.1,15-5.2
	c5.2-1.2,10.9-3.5,12.8-8.5c2-5.2-0.9-10.8-2.6-16.1c-2.5-7.4-2.2-15.5,0.8-22.7c3.1-7.2,9.4-12.6,17.1-14.5
	c7.6-1.7,16.1,1.1,20.7,7.2c6.2-1.9,12.8,1.2,15.4,7.1c1.2,2.7,1,5.9-0.5,8.4c-1.6,2.4-5.1,3.7-7.7,2.3l1.5-3.8
	c-4.7,1.6-7.7,10-7.1,14.9c0.6,4.9,3.5,9.1,6.3,13.1c2.9,4,6,8,7.2,12.7c1.8,6.8-0.6,14.3-5.1,19.8c-4.5,5.5-10.8,9.2-17.3,11.9
	c-4.9,2.1-9.9,3.6-15.1,4.7c0.9-1.8,1.8-3.6,2.8-5.4l-11,6.6c-2.1,0.2-4.3,0.3-6.4,0.4c-6.2,0.1-12.6-0.5-18.3-3
	c-5.7-2.5-10.7-7-12.8-12.9c-0.7-1.9-1-3.9-0.9-5.9C133.6,127.8,138.6,126.7,143.7,125.7L143.7,125.7z"/>
<path class="st6" d="M340.7,498.6h-37.8l-0.2-0.3c-0.5-0.9-1-1.8-1.4-2.8c-3.9-8.3-5.5-17.9-7-26.3l-1.1-6.3
	c-0.4-2.1,1.1-4.2,3.2-4.5c1-0.2,2.1,0.1,3,0.7c5.7,4.2,11.5,8.4,17.3,12.5c2.2,1.6,4.7,3.4,7,5.4c0.2-1.1,0.5-2.2,0.7-3.3
	c0.5-2.1,2.5-3.5,4.7-3c1,0.2,1.9,0.9,2.5,1.8l4.4,7.1c3.2,5.2,6.1,10.3,5.5,15.8c0,0.1,0,0.1,0,0.2c-0.1,0.9-0.3,1.8-0.6,2.7
	L340.7,498.6z"/>
<path class="st7" d="M378.7,499.4l-359.4,0.4c-0.7,0-1.4-0.6-1.3-1.4c0-0.7,0.6-1.3,1.3-1.3l359.4-0.4c0.7,0,1.4,0.6,1.3,1.4
	C380,498.8,379.4,499.4,378.7,499.4z"/>
</svg>
