<?xml version="1.0" encoding="utf-8"?>
<!-- Generator: Adobe Illustrator 27.6.1, SVG Export Plug-In . SVG Version: 6.00 Build 0)  -->
<svg version="1.1" id="Layer_1" xmlns="http://www.w3.org/2000/svg" xmlns:xlink="http://www.w3.org/1999/xlink" x="0px" y="0px"
	 viewBox="0 0 500 500" style="enable-background:new 0 0 500 500;" xml:space="preserve">
<style type="text/css">
	.st0{fill:#E6E6E6;}
	.st1{fill:#FFFFFF;}
	.st2{fill:#3F3D56;}
	.st3{fill:#6C63FF;}
	.st4{fill:#2F2E41;}
	.st5{fill:#A0616A;}
	.st6{fill:#F2F2F2;}
	.st7{fill:#CCCCCC;}
</style>
<path class="st0" d="M270.7,302.7V44.8c0-13.6,11-24.6,24.6-24.6h511.4c13.6,0,24.6,11,24.6,24.6v257.9c0,13.6-11,24.6-24.6,24.6
	H295.4C281.8,327.3,270.7,316.2,270.7,302.7z M828.8,44.8c0-12.2-9.9-22.1-22.1-22.1H295.4c-12.2,0-22.1,9.9-22.1,22.1v257.9
	c0,12.2,9.9,22.1,22.1,22.1h347.8c102.5,0,185.7-83.1,185.7-185.7L828.8,44.8L828.8,44.8z"/>
<g>
	<path class="st1" d="M450.9,67H164.3c-8.5,0-15.4,6.9-15.4,15.4v105.3c0,8.5,6.9,15.4,15.4,15.4h286.6c8.5,0,15.4-6.9,15.4-15.4
		V82.5C466.3,74,459.4,67,450.9,67z"/>
	<path class="st2" d="M450.9,67H164.3c-8.5,0-15.4,6.9-15.4,15.4v105.3c0,8.5,6.9,15.4,15.4,15.4h286.6c8.5,0,15.4-6.9,15.4-15.4
		V82.5C466.3,74,459.4,67,450.9,67z M464.7,187.7c0,7.6-6.2,13.8-13.8,13.8H164.3c-7.6,0-13.8-6.2-13.8-13.8V82.5
		c0-7.6,6.2-13.8,13.8-13.8h286.6c7.6,0,13.8,6.2,13.8,13.8V187.7z"/>
</g>
<path class="st3" d="M177.7,115h254.7c2.4,0,4.4,2,4.4,4.4l0,0c0,2.4-2,4.4-4.4,4.4H177.7c-2.4,0-4.4-2-4.4-4.4l0,0
	C173.3,117,175.3,115,177.7,115z"/>
<path class="st3" d="M177.7,143.7h92.4c2.4,0,4.4,2,4.4,4.4l0,0c0,2.4-2,4.4-4.4,4.4h-92.4c-2.4,0-4.4-2-4.4-4.4l0,0
	C173.3,145.7,175.3,143.7,177.7,143.7z"/>
<path class="st0" d="M733.9,101.7H559.1c-2.8,0-5-2.2-5-5s2.2-5,5-5h174.8c2.8,0,5,2.2,5,5C738.9,99.4,736.6,101.7,733.9,101.7z"/>
<path class="st0" d="M767,210H523.5v-1.2c80.2,12.3,161.5,11.3,243.6,0V210z"/>
<path class="st0" d="M733.9,165.4H559.1c-2.8,0-5-2.2-5-5s2.2-5,5-5h174.8c2.8,0,5,2.2,5,5S736.6,165.4,733.9,165.4z"/>
<rect x="524.7" y="226.2" class="st0" width="243.6" height="1.2"/>
<path class="st0" d="M733.9,132.5H559.1c-2.8,0-5-2.2-5-5c0-2.8,2.2-5,5-5h174.8c2.8,0,5,2.2,5,5
	C738.9,130.3,736.6,132.5,733.9,132.5z"/>
<path class="st0" d="M768.3,243.7c-84.1-5.7-165.7-6.6-243.6,0v-1.2h243.6V243.7z"/>
<g>
	<path class="st2" d="M432.1,223.4l-10.3-4.9c4.2,5.9,7.8,15.1,9.8,22.4c3.3-6.8,8.6-15.1,13.9-20.1l-10.9,2.8
		c6.7-32.8,31.9-56.3,60.7-56.3v-2.5C465.2,164.7,439,189.3,432.1,223.4z"/>
	<path class="st3" d="M479.4,273.4h-64.9c-2.8,0-5-2.2-5-5c0-2.8,2.2-5,5-5h64.9c2.8,0,5,2.2,5,5
		C484.4,271.1,482.2,273.4,479.4,273.4z"/>
</g>
<g>
	<circle class="st3" cx="313.2" cy="147.5" r="17.5"/>
	<path class="st1" d="M322.3,137.3c-0.8-0.5-2.1-0.2-2.6,0.7c-2.1,4.1-4.2,8.2-6.2,12.3c-1.7-2.6-3.8-4.9-6.3-6.8
		c-0.8-0.6-2.1-0.1-2.6,0.7c-0.6,1-0.1,1.9,0.7,2.6c2.9,2.2,5.1,5.3,6.6,8.6c0.6,1.3,2.6,1.2,3.2,0c2.6-5.1,5.2-10.3,7.8-15.4
		C323.4,138.9,323.2,137.8,322.3,137.3C322.3,137.3,322.3,137.3,322.3,137.3z"/>
</g>
<g>
	<circle class="st3" cx="522.9" cy="96.3" r="17.5"/>
	<path class="st1" d="M532,86.1c-0.8-0.5-2.1-0.2-2.6,0.7c-2.1,4.1-4.2,8.2-6.2,12.3c-1.7-2.6-3.8-4.9-6.3-6.8
		c-0.8-0.6-2.1-0.1-2.6,0.7c-0.6,1-0.1,1.9,0.7,2.6c2.9,2.2,5.1,5.3,6.6,8.6c0.6,1.3,2.6,1.2,3.2,0c2.6-5.1,5.2-10.3,7.8-15.4
		C533.2,87.7,532.9,86.6,532,86.1C532,86.1,532,86.1,532,86.1z"/>
</g>
<g>
	<circle class="st3" cx="773.9" cy="125" r="17.5"/>
	<path class="st1" d="M783,114.8c-0.8-0.5-2.1-0.2-2.6,0.7c-2.1,4.1-4.2,8.2-6.2,12.3c-1.7-2.6-3.8-4.9-6.3-6.8
		c-0.8-0.6-2.1-0.1-2.6,0.7c-0.6,1-0.1,1.9,0.7,2.6c2.9,2.2,5.1,5.3,6.6,8.6c0.6,1.3,2.6,1.2,3.2,0c2.6-5.1,5.2-10.3,7.8-15.4
		C784.1,116.4,783.9,115.3,783,114.8C783,114.8,783,114.8,783,114.8z"/>
</g>
<g>
	<path class="st0" d="M382.1,234.4H340c-2.6,0-4.7-2.1-4.7-4.7c-5.6-16.3-5.5-32.2,0-47.8c0-2.6,2.1-4.7,4.7-4.7h42.1
		c2.6,0,4.7,2.1,4.7,4.7v47.8C386.9,232.2,384.7,234.4,382.1,234.4L382.1,234.4z"/>
	<path class="st1" d="M349,178.4c-6.8,0-12.3,5.5-12.3,12.3v37.8c0,2.4,1.9,4.3,4.3,4.3h23.3c11.7,0,21.1-9.5,21.1-21.1v-29
		c0-2.4-1.9-4.3-4.3-4.3H349z"/>
	<g>
		<path class="st0" d="M370.9,192.4h-19.7c-0.5,0-0.9-0.4-0.9-0.9s0.4-0.9,0.9-0.9h19.7c0.5,0,0.9,0.4,0.9,0.9
			S371.4,192.4,370.9,192.4z"/>
		<path class="st0" d="M370.9,211.6h-19.7c-0.5,0-0.9-0.4-0.9-0.9c0-0.5,0.4-0.9,0.9-0.9h19.7c0.5,0,0.9,0.4,0.9,0.9
			C371.8,211.2,371.4,211.6,370.9,211.6z"/>
		<path class="st0" d="M381.4,202h-40.9c-0.5,0-0.9-0.4-0.9-0.9s0.4-0.9,0.9-0.9h40.9c0.5,0,0.9,0.4,0.9,0.9S381.9,202,381.4,202z"
			/>
	</g>
	<path class="st0" d="M381.9,219.4h-17.1c-0.5,0-0.9-0.4-0.9-0.9c0-0.5,0.4-0.9,0.9-0.9h17.1c0.5,0,0.9,0.4,0.9,0.9
		C382.8,219,382.4,219.4,381.9,219.4z"/>
</g>
<path class="st4" d="M92,103.5c1.1-5.1,1.4-1.3,3.8-6c-1.7,6,1.4,4,5.5,8.7c28.5,4.5,30.3-5.3,40.9-5l0.1,0c2.3,0,3.5-2.8,2.1-4.7
	c-3.5-4.6-7.3-11.6-3.7-16.1c6.4-7.9,0.8-24-2-20.5c0-13.5-16.6-22.3-23-20.1c-11.9,4-22.9,9.5-24.2,21.7c-0.2,1.9-0.5,3.8-0.8,5.7
	C90,71,87.1,72,88.1,75.8l3.1,3.1c1.4,5.5,1,11.3-1,16.7C89.1,98.6,88.9,101.1,92,103.5z"/>
<circle id="b" class="st5" cx="121.7" cy="67.5" r="17.9"/>
<g>
	<polygon class="st5" points="93.9,475.1 103.1,475.3 108.2,433.9 94.6,433.6 	"/>
	<path class="st4" d="M125.5,494.3L125.5,494.3c0,1.6-1.1,2.8-2.5,2.8h-18.3c0,0-1.8-7.2-9.1-10.3l-0.5,10.3h-9.4l1.1-16.6
		c0,0-2.5-8.9,2.7-13.4c5.2-4.5,1-3.9,1-3.9l2.1-10.3l14.2,1.7l0.1,16.2l6.9,16l10.1,5C124.9,492.1,125.5,493.2,125.5,494.3
		L125.5,494.3C125.5,494.3,125.5,494.3,125.5,494.3z"/>
</g>
<g>
	<polygon class="st5" points="104,437.5 111.3,443.1 139.8,412.7 129,404.5 	"/>
	<path class="st4" d="M118.2,471.7L118.2,471.7c-0.9,1.3-2.6,1.6-3.7,0.8l-14.8-10.8c0,0,2.8-6.9-1.3-13.7l-6.5,8.1l-7.6-5.6
		l10.7-12.8c0,0,3.2-8.7,10.1-9.3c6.9-0.6,3.1-2.6,3.1-2.6l7.7-7.1l10.5,9.7l-9.4,13.1l-3.9,17l5.2,10
		C119,469.6,118.9,470.8,118.2,471.7C118.2,471.7,118.2,471.7,118.2,471.7z"/>
</g>
<path class="st4" d="M77.7,263.6c0.6,2.3-0.5,12.9,0.1,16.5c1.5,9.3,14.7,59.8,12.4,74.2c-8.4,52.8,3.2,86.6,3.2,86.6h18.7l10-159.8
	l9.7,12.9l19.1,57l-33.7,60.7l17.6,14.6l52.6-83.6l-37.4-139.9l-2.3-8.4l-50.5-1.4l2.8,4.2l-6.4,6.3c0,0,0,0,0,0.1
	C92.7,204.7,70.8,235.5,77.7,263.6L77.7,263.6L77.7,263.6z"/>
<path class="st5" d="M93.7,203.3c5.8,2.1,45.4-0.1,56.4-0.7l-2.3-8.4l-50.5-1.4l2.8,4.2L93.7,203.3
	C93.7,203.2,93.7,203.3,93.7,203.3L93.7,203.3L93.7,203.3z"/>
<path class="st3" d="M159.1,135.6L159.1,135.6l-1.8,9.7l-0.4,2.3l-9.7,19.9l1.3,29.1c0.8,3.4-33.5-4.3-51.4,3.7l-13.9-66.4
	l14.1-30.6l11-6.1l1.8-7.4h23.4c1.2,5.8-0.1,8.7-2.5,10.3l5.9,15.6L159.1,135.6C159.1,135.6,159.1,135.6,159.1,135.6z"/>
<g>
	<path class="st5" d="M177.3,78.7L177.3,78.7c-0.3,2.5-1.1,4.7-2.3,6.4l-1.2,24l-11.4-0.9l2.5-24.2c-0.7-1.9-1-4.3-0.7-6.8
		c0.7-5.7,4.1-10,7.8-9.6C175.6,68,178,73,177.3,78.7L177.3,78.7L177.3,78.7L177.3,78.7L177.3,78.7z"/>
	<path class="st3" d="M131.9,103.9l1.5,3.6c0,0-21.7-2.2-21.3,9.2c0.4,9.7,41.3,48,43.2,48.9v0c5.8,2.7,12.5-0.9,13.6-7.2
		c9.2-23.8,11.1-45.2,6.9-64.6h-12.5l-4.1,15.4l-0.2,11.7l-6.6,14l-21.6-27.3L131.9,103.9L131.9,103.9z"/>
</g>
<path class="st5" d="M59.5,237.2c0.8-2.4,1-4.9,0.6-6.9l9.1-22.8l-11-4l-8.1,23.6c-1.5,1.4-2.8,3.5-3.6,6
	c-1.8,5.6-0.4,11.1,3.1,12.2C53.3,246.4,57.7,242.8,59.5,237.2L59.5,237.2L59.5,237.2L59.5,237.2z"/>
<path class="st3" d="M112.1,103.9c0,0-13.5-5.1-21.1,1.1c-3.2,2.6-17.1,20.3-19.3,44.2c-0.2,1.9-1.4,3.5-2.2,5.2
	c-4.4,10.8-12.1,15.8-15.3,25c-1.3,3.6,1.1,13,0.3,16.1c-4.2,16.3-2.7,25.6-2.7,25.6l11.3,3.8l6.1-4.3l10.1-36.9L112.1,103.9
	L112.1,103.9z"/>
<g>
	<path class="st0" d="M213.6,75.8h-42.1c-2.6,0-4.7-2.1-4.7-4.7c-5.6-16.3-5.5-32.2,0-47.8c0-2.6,2.1-4.7,4.7-4.7h42.1
		c2.6,0,4.7,2.1,4.7,4.7v47.8C218.3,73.7,216.2,75.8,213.6,75.8z"/>
	<path class="st1" d="M180.5,19.9c-6.8,0-12.3,5.5-12.3,12.3V70c0,2.4,1.9,4.3,4.3,4.3h23.3c11.7,0,21.1-9.5,21.1-21.1v-29
		c0-2.4-1.9-4.3-4.3-4.3C212.5,19.9,180.5,19.9,180.5,19.9z"/>
	<g>
		<path class="st0" d="M202.3,33.8h-19.7c-0.5,0-0.9-0.4-0.9-0.9c0-0.5,0.4-0.9,0.9-0.9h19.7c0.5,0,0.9,0.4,0.9,0.9
			S202.8,33.8,202.3,33.8z"/>
		<path class="st0" d="M202.3,53h-19.7c-0.5,0-0.9-0.4-0.9-0.9s0.4-0.9,0.9-0.9h19.7c0.5,0,0.9,0.4,0.9,0.9S202.8,53,202.3,53z"/>
		<path class="st0" d="M212.9,43.4H172c-0.5,0-0.9-0.4-0.9-0.9c0-0.5,0.4-0.9,0.9-0.9h40.9c0.5,0,0.9,0.4,0.9,0.9
			C213.8,43,213.4,43.4,212.9,43.4z"/>
	</g>
	<path class="st0" d="M213.4,60.8h-17.1c-0.5,0-0.9-0.4-0.9-0.9c0-0.5,0.4-0.9,0.9-0.9h17.1c0.5,0,0.9,0.4,0.9,0.9
		S213.9,60.8,213.4,60.8z"/>
</g>
<path class="st6" d="M225.7,476.5c2.6,0.2,4-3,2.1-4.9l-0.2-0.8c0-0.1,0.1-0.1,0.1-0.2c2.6-6.2,11.4-6.2,14,0.1
	c2.3,5.5,5.2,11.1,5.9,16.9c0.3,2.6,0.2,5.2-0.4,7.7c5.4-11.7,8.2-24.6,8.2-37.5c0-3.2-0.2-6.5-0.5-9.7c-0.3-2.6-0.7-5.3-1.2-7.9
	c-2.9-14.1-9.1-27.5-18.1-38.7c-4.3-2.4-7.9-6.1-10.1-10.5c-0.8-1.6-1.4-3.3-1.7-5.1c0.5,0.1,1.9-7.4,1.5-7.9c0.7-1,1.9-1.6,2.7-2.6
	c3.7-5,8.9-4.2,11.5,2.7c5.7,2.9,5.8,7.7,2.3,12.3c-2.2,2.9-2.5,6.9-4.5,10c0.2,0.3,0.4,0.5,0.6,0.8c3.7,4.7,6.9,9.8,9.6,15.2
	c-0.8-6,0.4-13.1,2.3-17.7c2.2-5.3,6.3-9.7,9.9-14.3c4.3-5.5,13.2-3.1,14,3.8c0,0.1,0,0.1,0,0.2c-0.5,0.3-1.1,0.6-1.6,1
	c-2.9,1.9-1.9,6.5,1.5,7l0.1,0c-0.2,1.9-0.5,3.8-1,5.7c4.6,17.9-5.4,24.4-19.6,24.7c-0.3,0.2-0.6,0.3-0.9,0.5
	c1.4,4.1,2.6,8.2,3.5,12.5c0.8,3.7,1.3,7.5,1.6,11.3c0.4,4.8,0.3,9.6-0.1,14.4l0-0.2c1-5.3,3.9-10.2,8-13.6
	c6.2-5.1,14.9-6.9,21.6-11c3.2-2,7.3,0.6,6.8,4.3l0,0.2c-1,0.4-2,0.9-2.9,1.4c-0.5,0.3-1.1,0.6-1.6,1c-2.9,1.9-1.9,6.5,1.5,7l0.1,0
	c0.1,0,0.1,0,0.2,0c-1.7,4-4.1,7.8-7,11c-2.9,15.6-15.3,17.1-28.6,12.5h0c-1.5,6.3-3.6,12.5-6.3,18.4h-22.5
	c-0.1-0.2-0.2-0.5-0.2-0.8c2.1,0.1,4.2,0,6.2-0.4c-1.7-2-3.3-4.1-5-6.2c0,0-0.1-0.1-0.1-0.1c-0.8-1-1.7-2.1-2.5-3.1l0,0
	C224.5,482.8,224.9,479.6,225.7,476.5L225.7,476.5L225.7,476.5z"/>
<path class="st7" d="M16.5,498.5c0,0.8,0.7,1.5,1.5,1.5h272.6c0.8,0,1.5-0.7,1.5-1.5c0-0.8-0.7-1.5-1.5-1.5H18
	C17.1,497,16.5,497.7,16.5,498.5z"/>
<path class="st4" d="M126.6,46.4h-3.6c-10.6,0-28.8,15.1-21.8,25.6c-6,16-6.2,24.4-3.7,28.8c0.9,1.6,2.8,2.3,4.7,2.2
	c0.2,0,0.5,0,0.7,0c1.8,0.1,4.2,8.5,5.9,9.2l4.4-1.4l7.3-7.3l-3.7-11.1l-7.2-5.6l1-13c-4.8-11,0.4-11.6,3.4-15.1l0.3,11.4l4.2-4.1
	c3.4,0.1,7.4,1.6,10.1-1.5c4.8-5.7,9.8,1.2,15.5,2.6l1.8-1.4c0.1-3.2-0.4-6.2-1.3-9c-0.4-1.3-1.5-2.4-1.6-3.6
	C142.8,48.2,133.7,43.5,126.6,46.4L126.6,46.4L126.6,46.4z"/>
</svg>
