<?xml version="1.0" encoding="utf-8"?>
<!-- Generator: Adobe Illustrator 27.6.1, SVG Export Plug-In . SVG Version: 6.00 Build 0)  -->
<svg version="1.1" id="Layer_1" xmlns="http://www.w3.org/2000/svg" xmlns:xlink="http://www.w3.org/1999/xlink" x="0px" y="0px"
	 viewBox="0 0 500 500" style="enable-background:new 0 0 500 500;" xml:space="preserve">
<style type="text/css">
	.st0{fill:#E6E6E6;}
	.st1{fill:#FFFFFF;}
	.st2{fill:#6C63FF;}
	.st3{fill:#F2F2F2;}
	.st4{fill:#FFB6B6;}
	.st5{fill:#2F2E41;}
	.st6{fill:#CCCCCC;}
	.st7{fill:#3F3D56;}
</style>
<path class="st0" d="M131.9,39.9L98.1,13.1L87,4.4c-1.9-1.5-4.7-1.2-6.2,0.7l-3,3.8L54,39c-1.5,1.9-1.2,4.6,0.7,6.1c0,0,0,0,0,0
	C65,61,78.9,72,95.8,79.1c1.3,0.5,2.5,1.1,3.8,1.6c0.7,0.5,1.5,0.9,2.3,0.9c1.5,0.1,2.9-0.5,3.8-1.6l3.1-4l1.9-2.4l21.8-27.5
	C134.2,44.2,133.8,41.4,131.9,39.9z"/>
<path class="st1" d="M127.4,40.6L95.2,15.1l-7.7-6.1c-1.8-1.4-4.3-1.1-5.8,0.7l-1.8,2.3L58.6,38.8c-1.4,1.8-1.1,4.3,0.7,5.8
	C68.7,55.7,78.2,65,88.1,67.4c5.2,4.1,12.1,5.1,18.2,2.6c0.1,0,0.1,0,0.2-0.1c0,0,0.1,0,0.2-0.1c2.8-1.2,5.2-3.1,7.1-5.4l14.3-18.1
	C129.5,44.6,129.2,42,127.4,40.6z"/>
<path class="st2" d="M81.9,37.1c0.1-2.3,1.7-4.3,3.9-4.9c2.4-0.5,4.6,0.8,5.8,2.8c1.3,2.3,1.8,5,3.4,7.2c1.4,1.9,3.6,3.3,6.1,3
	c1.7-0.2,1.5-3-0.2-2.7c-2.9,0.4-4.3-2.7-5.2-4.9c-1.1-2.8-2.1-5.6-4.8-7.1c-3.8-2.1-8.6-0.7-10.7,3c-0.5,1-0.9,2.1-1,3.2
	C79.1,38.4,81.8,38.9,81.9,37.1L81.9,37.1z"/>
<circle class="st2" cx="106" cy="47.9" r="2.7"/>
<path class="st0" d="M324.6,473.5l-43.2-0.3l-14.1-0.1c-2.4,0-4.4,0.9-4.4,2.1l-0.1,2.3l-0.5,18.2c0,1.1,1.9,2.1,4.3,2.1
	c17.6,2.9,35.6,3.2,53.3,0.9c1.3-0.2,2.7-0.3,4-0.5c0.8,0,1.6-0.1,2.4-0.3c1.2-0.4,2-1,2-1.7l0.1-2.4l0-1.5l0.4-16.6
	C328.9,474.5,327,473.5,324.6,473.5z"/>
<path class="st1" d="M321.4,475.1l-41.1-0.2l-9.9-0.1c-2.3,0-4.1,0.8-4.1,1.9l0,1.4l-0.4,16.2c0,1.1,1.8,2,4,2
	c14.3,1.5,27.5,2.2,36.8,0.2c6.8,0,12.8-1.7,16-4.3c0,0,0.1-0.1,0.1-0.1c0,0,0.1,0,0.1-0.1c1.3-1,2.2-2.5,2.3-4.1l0.3-10.9
	C325.5,476,323.6,475.1,321.4,475.1z"/>
<path class="st0" d="M283.3,487c-1.3-0.9-1.4-2.1,0.1-3c1.6-0.9,4.1-1,6.3-0.6c2.5,0.5,4.5,1.4,7.1,1.7c2.3,0.3,4.9,0.2,6.6-0.6
	c1.2-0.6-0.6-1.5-1.8-1c-2,1-5.1,0.2-7.1-0.4c-2.5-0.7-5.1-1.5-8.2-1.3c-5.6,0.4-8.5,3.5-5.4,5.7C281.8,488.3,284.2,487.7,283.3,487
	L283.3,487z"/>
<ellipse class="st0" cx="308.9" cy="484" rx="2.7" ry="1.3"/>
<path class="st3" d="M116.6,157.3c-3.8-15.8-3.1-31.3,3.3-46.5c0.1-2,1.8-3.4,3.8-3.3l35.1,2.5c2,0.1,3.4,1.8,3.3,3.8l-3.3,46.5
	c-0.1,2-1.8,3.4-3.8,3.3l-35.1-2.5C118,160.9,116.5,159.2,116.6,157.3z"/>
<path class="st1" d="M120.3,143.4c-3-7.8-1.1-18.5,2.1-29.9c0.1-1.8,1.7-3.2,3.6-3.1l30.2,2.1c1.8,0.1,3.2,1.7,3.1,3.6l-2.9,41.4
	c-0.1,1.8-1.7,3.2-3.6,3.1l-18.7-1.3C125.9,158.7,119.7,151.6,120.3,143.4z"/>
<path class="st3" d="M141.2,145.4c-0.9-0.2-1.8-0.3-2.8-0.5c0.4-1,0.7-2.1,0.7-3.2c0.4-5.8,0.5-11.7,0.7-17.5c0-0.6-0.5-1.1-1.1-1.1
	c-0.3,0-0.5,0.1-0.7,0.3c-2.3,1.9-4.6,3.8-6.9,5.8c-1.1,0.9,0.5,2.4,1.5,1.5c1.7-1.4,3.3-2.8,5-4.1c-0.2,3.8-0.3,7.6-0.5,11.5
	c-0.1,1.8,0.1,4.1-0.6,5.8c-0.1,0.2-0.2,0.5-0.4,0.6c-1-0.2-2-0.4-3.1-0.5c-0.7-0.1-1.7,0.5-1.3,1.3c0.7,1.9,2.8,2.5,4.5,1.7
	c0.2-0.1,0.3-0.2,0.5-0.2l3.9,0.7C142,147.8,142.6,145.7,141.2,145.4z"/>
<path class="st3" d="M244.1,161.6c-3.8-15.8-3.1-31.3,3.3-46.5c0.1-2,1.8-3.4,3.8-3.3l35.1,2.5c2,0.1,3.4,1.8,3.3,3.8l-3.3,46.5
	c-0.1,2-1.8,3.4-3.8,3.3l-35.1-2.5C245.4,165.3,243.9,163.6,244.1,161.6z"/>
<path class="st1" d="M247.8,147.8c-3-7.8-1.1-18.5,2.1-29.9c0.1-1.8,1.7-3.2,3.6-3.1l30.2,2.1c1.8,0.1,3.2,1.7,3.1,3.6l-2.9,41.4
	c-0.1,1.8-1.7,3.2-3.6,3.1l-18.7-1.3C253.3,163,247.2,155.9,247.8,147.8z"/>
<path class="st3" d="M267.5,139.9c0.4-0.2,0.8-0.4,1.1-0.7c1.9-1.6,2.7-4.1,2-6.5c-1.4-5.2-7.6-5.2-11.9-4.6
	c-1.4,0.2-0.8,2.3,0.6,2.1c2.9-0.4,7.4-0.8,9,2.4c0.7,1.5,0.5,3.3-0.7,4.6c-0.7,0.7-1.5,1.1-2.5,1.2c-0.9-0.4-1.9-0.6-2.9-0.5
	c-1,0-1.6,1.5-0.6,2c0.9,0.5,1.9,0.7,2.9,0.7c1.7,0.8,2.8,2.6,2.7,4.5c-0.4,2.7-2.9,4.5-5.6,4.1c0,0,0,0,0,0c-1.4-0.3-2,1.8-0.6,2.1
	c3.9,0.7,7.6-1.8,8.3-5.7c0-0.1,0-0.2,0.1-0.3C269.7,143.3,268.9,141.3,267.5,139.9z"/>
<polygon class="st4" points="312.3,459.9 300,459.9 294.1,412.2 312.3,412.2 "/>
<path class="st5" d="M312.8,472.7l-38,0v-0.5c0-8.2,6.6-14.8,14.8-14.8h0l6.9-5.3l13,5.3l3.3,0L312.8,472.7z"/>
<polygon class="st4" points="369.1,486.1 356.8,486.1 350.9,438.4 369.1,438.4 "/>
<path class="st5" d="M369.6,499l-38,0v-0.5c0-8.2,6.6-14.8,14.8-14.8h0l6.9-5.3l13,5.3l3.3,0L369.6,499z"/>
<path class="st4" d="M217.1,104.9c3.2,3.6,8.8,3.9,12.4,0.7c0.4-0.3,0.7-0.7,1-1l42.1,12l6.2-10.8l-50.1-13.9
	c-4-2.8-9.5-1.8-12.2,2.2C214.1,97.4,214.4,101.9,217.1,104.9L217.1,104.9z"/>
<path class="st5" d="M326.7,205.2l-44.3,101.4l-5.1,16l15.4,112.5l24.9-1.2l-0.1-14.4c0,0-5.9-3.2,0-5c5.9-1.7,5.7-6.2,0-12.7
	c-5.7-6.5-0.3-69-0.3-69s23.5-22.5,20.9-28.4c-2.6-5.9,2.2-5.9,2.2-5.9s5.1-0.9,5.3-3.4c0.2-2.5,3.9-7.4,3.9-7.4L348.1,461h21.5
	c0,0,9.8-16.3,7.9-19.8c-1.9-3.5-4.6-3.9,0-8.1s11.4-0.8,8.4-8.7c-3-7.9-2.3-93.2-2.3-93.2s11.9-49.5,4.6-52.9
	c-7.4-3.4-3.7-2.9,0.6-7.5s-3-4.2,0.7-7.7c3.7-3.5,3.8-44.5,3.8-44.5L326.7,205.2z"/>
<path class="st2" d="M396.7,233.8c-31.1-0.1-57.7,6.9-88.8,6.8c2-14,9.1-36,11.1-50c2.8-19.7,0.6-31.5,3.5-51.2
	c0.3-1.9,0.6-3.9,0.8-5.8c1.1-7.8-1.6-15.6,3.3-23.8c2.1-3.5,5.5-7.1,11.1-10.8c11.8,1.2,11.6-4.1,23.3-2.9l3.9,7.7
	c0.5,2.9,2.3,4.9,4.7,6.3c5,3,12.6,4.1,17.2,8.1c5.8,5.1,5.4,13.3,3.7,21.3c-0.6,2.8-1.4,5.7-2.1,8.3c-5.9,21.3,1.6,37.6,7.8,57.3
	c0.6,1.9-5,9.1-4.4,10.9c1,3.1,4.6,6.9,4,8.9C395.1,227.6,394.4,230,396.7,233.8z"/>
<path class="st2" d="M390.5,139.6l-68-0.2l-2.2,0l-80.7-29.6l10.3,0.4l4.8-11l2.3-5.3l47.6,15.9l22,0.2l41.4,0.3c0.5,0,1.1,0,1.6,0
	c5,3,12.6,4.1,17.2,8.1C392.6,123.4,392.2,131.6,390.5,139.6z"/>
<circle class="st4" cx="344" cy="71.9" r="22.1"/>
<path class="st5" d="M340.9,90.9l1.8,5.8c4-2,15.3-4.7,18.6-7.7s5.9-7.1,6.1-11.5c0.1-2.3-0.5-4.6-0.1-6.9c0.4-2.6,2-4.8,2.7-7.3
	c1.4-5.4-1.2-11-6.3-13.4c-3.7-1.6-7.9-1.2-11.8-1.5c-4-0.4-8.4-2.2-9.5-6c-0.4-1.4-0.4-3.1-1.7-4.1c-1.3-0.9-3.1-0.6-4.2,0.6
	c-0.1,0.1-0.1,0.1-0.2,0.2c-3.4,4.2-9.7,4.5-13.1,0.3c-0.2-0.3-0.4-0.6-0.6-0.9c-2.9,2.7-3.1,7.3-0.3,10.2c0,0,0,0,0,0.1
	c-2.6,0-4.8-1.8-5.4-4.3c-1.5,2.1-3.1,4.3-3.6,6.9c-0.5,2.6,0.4,5.6,2.8,6.7c1.2,0.5,2.5,0.7,3.8,0.6c-6,7.1-2.4,6.9,9.8,0.2
	c6.1,0.1,3.7,5.8,3.8,11.8l0,0c2.9-0.3,5.8-0.5,8.5,0.7c1.3,0.5,2.3,1.4,3,2.6c1.8,3.1,0,6.3-1.6,9c-1.3,2.4-2.6,5.3-1.5,7.8"/>
<path class="st4" d="M300.6,276.2c4.2-2.3,5.8-7.7,3.4-11.9c-0.2-0.4-0.5-0.8-0.8-1.2l21.1-38.4l-9.2-8.4L290.5,262
	c-3.6,3.3-3.8,8.8-0.6,12.4C292.7,277.4,297.1,278.2,300.6,276.2L300.6,276.2z"/>
<path class="st2" d="M352.1,96.7l-4.9,88.1l-23.7,55.3l-15.4,20.4l1.8-9.3l-10.6-5.3l-1-0.5l14.1-35.8l4.3-10.8l2-32.5l1.9-30.8
	c0.7-10.7,5.8-20.6,14.1-27.4l11.8-9.6L352.1,96.7z"/>
<path class="st3" d="M186.5,96.8c-3.8-15.8-3.1-31.3,3.3-46.5c0.1-2,1.8-3.4,3.8-3.3l35.1,2.5c2,0.1,3.4,1.8,3.3,3.8l-3.3,46.5
	c-0.1,2-1.8,3.4-3.8,3.3l-35.1-2.5C187.9,100.5,186.4,98.8,186.5,96.8z"/>
<path class="st1" d="M190.2,83c-3-7.8-1.1-18.5,2.1-29.9c0.1-1.8,1.7-3.2,3.6-3.1l30.2,2.1c1.8,0.1,3.2,1.7,3.1,3.6l-2.9,41.4
	c-0.1,1.8-1.7,3.2-3.6,3.1L204,98.8C195.8,98.2,189.7,91.1,190.2,83z"/>
<path class="st2" d="M208.8,62.1c-3.1-1.1-6.5,1.4-6.9,4.5c-0.4,3.6,3.5,6.4,6.8,5.5c1.3-0.4,0.8-2.5-0.6-2.1
	c-2.5,0.7-5.1-1.9-3.7-4.3c0.7-1.2,2-1.8,3.3-1.6c1.1,0.3,2,1.1,2.4,2.2c1.2,2.7-0.2,5.5-2.1,7.4c-1.1,1.1-2.4,2-3.5,3
	c-1.1,0.9-1.9,2.2-2,3.6c0.1,1.6,1,3.1,2.5,3.8c1.9,1,4,0.7,6,0.3c1.4-0.2,0.8-2.3-0.6-2.1c-1.7,0.3-4.3,0.7-5.4-1.1
	c-0.9-1.5,1-2.9,2.1-3.7c2.7-2.1,5.3-4.7,5.7-8.3C213.1,66.4,211.7,63.1,208.8,62.1z"/>
<path class="st3" d="M390.9,487.8c0.9,0,1.7-0.7,1.7-1.6c0-0.5-0.2-1-0.5-1.3l-0.1-0.5c0,0,0-0.1,0-0.1c1-2.3,3.6-3.3,5.8-2.4
	c1.1,0.5,1.9,1.3,2.4,2.4c1.3,3.2,3,6.5,3.5,9.9c0.2,1.5,0.1,3-0.2,4.5c3.1-6.9,4.8-14.3,4.8-21.9c0-1.9-0.1-3.8-0.3-5.7
	c-0.2-1.5-0.4-3.1-0.7-4.6c-1.7-8.3-5.3-16-10.6-22.6c-2.5-1.4-4.6-3.5-5.9-6.1c-0.5-0.9-0.8-1.9-1-3c0.3,0,1.1-4.3,0.9-4.6
	c0.4-0.6,1.1-0.9,1.6-1.5c2.2-2.9,5.2-2.4,6.7,1.6c3.3,1.7,3.4,4.5,1.3,7.2c-1.3,1.7-1.5,4-2.6,5.9c0.1,0.2,0.2,0.3,0.4,0.4
	c2.1,2.8,4,5.7,5.6,8.9c-0.4-3.5,0.1-7.1,1.3-10.3c1.3-3.1,3.7-5.7,5.8-8.3c1.6-2,4.4-2.3,6.4-0.8c1,0.7,1.6,1.8,1.7,3
	c0,0,0,0.1,0,0.1c-0.3,0.2-0.6,0.4-0.9,0.6c-1,0.7-1.3,2.1-0.6,3.1c0.3,0.5,0.9,0.9,1.5,1l0,0c-0.1,1.1-0.3,2.2-0.6,3.3
	c2.7,10.4-3.1,14.2-11.4,14.4c-0.2,0.1-0.4,0.2-0.5,0.3c1.6,4.5,2.6,9.1,2.9,13.9c0.2,2.8,0.2,5.6,0,8.4l0-0.1
	c0.6-3.1,2.3-5.9,4.7-7.9c3.6-3,8.7-4,12.6-6.4c1.2-0.8,2.8-0.4,3.6,0.8c0.3,0.5,0.5,1.1,0.4,1.7l0,0.1c-0.6,0.2-1.1,0.5-1.7,0.8
	c-0.3,0.2-0.6,0.4-0.9,0.6c-1,0.7-1.3,2.1-0.6,3.1c0.3,0.5,0.9,0.9,1.5,1l0,0c0,0,0.1,0,0.1,0c-1,2.4-2.4,4.5-4.1,6.4
	c-1.7,9.1-8.9,10-16.7,7.3h0c-0.8,3.7-2.1,7.3-3.7,10.7h-13.1c0-0.1-0.1-0.3-0.1-0.4c1.2,0.1,2.4,0,3.6-0.2c-1-1.2-1.9-2.4-2.9-3.6
	c0,0,0,0-0.1-0.1c-0.5-0.6-1-1.2-1.5-1.8l0,0C390.3,491.5,390.5,489.6,390.9,487.8L390.9,487.8z"/>
<path class="st6" d="M244.1,499.6c0,0.5,0.4,0.9,0.9,0.9c0,0,0,0,0,0h184.5c0.5,0,0.9-0.4,0.9-0.9c0-0.5-0.4-0.9-0.9-0.9H245
	C244.5,498.7,244.1,499.1,244.1,499.6C244.1,499.6,244.1,499.6,244.1,499.6z"/>
<path class="st7" d="M120.8,68.7c7.7,11.1,17.7,22.7,32.1,23.9c3.4,0.3,6.8-0.1,10-1.2c1.3-0.5,0.4-2.5-0.9-2
	c-5.4,1.9-11.3,1.3-16.5-0.7c-6.1-2.4-11.3-6.7-15.6-11.6c-2.7-3.1-5.2-6.3-7.5-9.7C121.7,66.2,120,67.6,120.8,68.7L120.8,68.7z"/>
<path class="st7" d="M152.8,82.5c2.8-0.7,5.7-1.4,8.5-1.1c2.6,0.3,5.4,1.6,6.4,4.1c1.8,4.2-1.5,8.9-3.8,12.2
	c-0.3,0.5-0.2,1.2,0.3,1.5c0.5,0.3,1.1,0.2,1.5-0.2c2.4-3.3,4.8-7.1,4.7-11.3c-0.1-4.9-4.5-8.1-9.1-8.5c-3-0.2-5.9,0.5-8.8,1.2
	C151.1,80.7,151.4,82.8,152.8,82.5L152.8,82.5z"/>
</svg>
